<?xml version="1.0" encoding="UTF-8" standalone="no"?>
<!-- Created with Inkscape (http://www.inkscape.org/) -->
<svg xmlns:dc="http://purl.org/dc/elements/1.1/" xmlns:cc="http://creativecommons.org/ns#" xmlns:rdf="http://www.w3.org/1999/02/22-rdf-syntax-ns#" xmlns:svg="http://www.w3.org/2000/svg" xmlns="http://www.w3.org/2000/svg" xmlns:sodipodi="http://sodipodi.sourceforge.net/DTD/sodipodi-0.dtd" xmlns:inkscape="http://www.inkscape.org/namespaces/inkscape" id="svg2985" version="1.1" inkscape:version="0.91 r13725" width="675" height="542" sodipodi:docname="BritishMandatePalestine1920.svg">
  <metadata id="metadata2991">
    <rdf:RDF>
      <cc:Work rdf:about="">
        <dc:format>image/svg+xml</dc:format>
        <dc:type rdf:resource="http://purl.org/dc/dcmitype/StillImage"/>
        <dc:title/>
      </cc:Work>
    </rdf:RDF>
  </metadata>
  <defs id="defs2989"/>
  <sodipodi:namedview pagecolor="#fff3e3" bordercolor="#666666" borderopacity="1" objecttolerance="10" gridtolerance="10" guidetolerance="10" inkscape:pageopacity="0" inkscape:pageshadow="2" inkscape:window-width="1920" inkscape:window-height="1030" id="namedview2987" showgrid="false" inkscape:zoom="0.83729681" inkscape:cx="-6.1884687" inkscape:cy="40.54667" inkscape:window-x="-8" inkscape:window-y="-8" inkscape:window-maximized="1" inkscape:current-layer="svg2985"/>
  <rect style="fill:#fff3e3;fill-opacity:1;fill-rule:evenodd;stroke:none;stroke-width:3;stroke-linecap:round;stroke-linejoin:miter;stroke-miterlimit:4;stroke-opacity:1;stroke-dasharray:none" id="rect3789" width="675.62073" height="543.75446" x="2.3270519" y="0.57259744" rx="23.751015" ry="0"/>
  <path style="fill:#8ecff5;fill-opacity:1;stroke:none" d="M 171.10218,0.09050986 C 163.52393,12.424011 154.62171,23.05774 154.93525,41.967728 l -7.23349,13.78447 C 128.18733,138.36791 96.513155,221.77792 39.847999,261.91278 10.697806,285.00369 7.4411016,279.06675 -0.54849139,278.17564 L 1.919374,1.8597363 z" id="path3013" inkscape:connector-curvature="0" sodipodi:nodetypes="ccccccc"/>
  <path style="fill:#facd8a;fill-opacity:1;stroke:#9c9d9f;stroke-width:1px;stroke-linecap:butt;stroke-linejoin:miter;stroke-opacity:1" d="m 138.9428,73.929265 c 7.44135,-18.218547 11.35141,-15.236743 12.10096,-16.041671 32.42011,9.232203 46.50481,-10.797274 44.21917,-22.693635 4.07147,-0.274361 7.64183,-2.720187 13.1638,3.290948 l -4.6484,19.557478 c 10.42644,2.393406 -0.0833,7.103627 -0.83652,12.255023 l -1.09698,8.775862 c 12.1531,4.304759 7.82266,11.282525 1.09698,18.648707 l -1.87266,6.254893 c 17.5541,-11.548746 41.24446,-17.293767 55.62482,15.68476 l 29.61853,6.5819 4.38793,7.67888 c 27.04944,4.73466 55.89988,13.07131 74.59483,1.09698 C 434.31578,97.707077 488.05718,56.019938 573.72199,21.481674 l 59.78556,145.898706 c -75.71116,25.58337 -161.80069,43.69933 -241.8847,66.36746 28.37978,51.57275 47.15638,84.01334 87.75862,120.66811 3.53137,18.49098 10.48581,11.309 8.77586,69.10991 L 261.0819,511.28448 129.63943,490.69712 c -8.93143,6.20283 -2.05639,-10.2602 0.90152,-18.90402 l -10.26376,5.74022 C 107.01449,415.20632 67.122174,314.04515 43.13536,259.87996 86.243015,192.83589 117.3109,186.60269 138.9428,73.929265 z" id="path2995" inkscape:connector-curvature="0" sodipodi:nodetypes="cccccccccccccccccccccccc"/>
  <path style="fill:#000000;stroke:#9c9d9f;stroke-width:1px;stroke-linecap:butt;stroke-linejoin:miter;stroke-opacity:1;fill-opacity:1" d="M 573.23044,22.291748 618.22011,-0.20308654" id="path3017" inkscape:connector-curvature="0"/>
  <path style="fill:#000000;stroke:#9c9d9e;stroke-width:1px;stroke-linecap:butt;stroke-linejoin:miter;stroke-opacity:1;fill-opacity:1" d="m 632.95811,167.34465 43.4383,-6.20547" id="path3787" inkscape:connector-curvature="0"/>
  <path style="fill:#8ecff5;fill-opacity:1;stroke:none" d="m 129.65281,473.17183 -7.11021,2.50719 c -0.78172,1.25133 -7.9079,0.47452 -7.03627,5.36324 -9.40775,7.76907 -9.37616,8.18903 -14.27957,16.35591 l 0,7.75684 c -1.302434,1.51148 -1.447572,2.6372 -1.939213,3.87842 l -1.394755,4.26626 c -3.770025,2.19777 -3.795674,4.39555 -4.422875,6.59332 l 0.387842,7.75684 c -0.617533,0.21462 -2.606838,1.25524 -3.949,5.81763 l 0.732668,5.88417 0,2.32705 25.209733,0 -0.66209,-12.47749 6.59331,-24.0462 6.59332,-12.79878 -0.77569,-1.93921 -2.14691,-1.07346 z" id="path3015" inkscape:connector-curvature="0" sodipodi:nodetypes="ccccccccccccccccccc"/>
  <path style="fill:#8ecff5;stroke:none;stroke-width:1px;stroke-linecap:butt;stroke-linejoin:miter;stroke-opacity:1;fill-opacity:1" d="m 194.69668,210.20119 6.20547,0.38784 0.19392,9.88997 c -6.22857,5.15884 -3.25978,13.14814 -1.55137,20.74955 l -0.19392,8.3386 c -3.79457,5.04347 -7.18662,20.95506 -11.44134,13.57447 l -2.52097,0 0,9.88997 6.39939,0.58176 c 2.24528,2.93841 2.92445,5.20563 1.55137,6.59331 -1.05416,6.72824 -2.73167,12.47693 -7.369,13.57447 l -0.19392,2.7149 1.55137,1.35744 c -7.89105,-0.77045 -14.63108,-2.76385 -14.35016,-12.21702 -0.57585,-4.6541 -1.06615,-9.30821 2.90882,-13.96231 l -0.38784,-5.04195 -0.77569,0.19393 0,-7.95076 1.74529,-0.19393 -0.38784,-19.19817 c 0.99269,-3.78853 2.19521,-3.99572 3.29665,-9.11429 1.33183,-8.20934 9.3571,-15.69619 15.31977,-20.16778 z" id="path2997" inkscape:connector-curvature="0" sodipodi:nodetypes="cccccccccccccccccccccc"/>
  <path style="fill:#000000;stroke:#8ecff5;stroke-width:1px;stroke-linecap:butt;stroke-linejoin:miter;stroke-opacity:1;fill-opacity:1" d="m 195.47236,210.00727 c 0,-0.38785 0,-0.77569 0,-1.16353 0,-0.0646 -0.0457,-0.14821 0,-0.19392 0.0457,-0.0457 0.14821,0.0457 0.19392,0 0.008,-0.008 0,-0.70447 0,-0.77569 0,-0.45248 0,-0.90496 0,-1.35744 0,-0.0873 -0.0295,-0.52275 0,-0.58177 0.0409,-0.0818 0.15304,-0.11215 0.19392,-0.19392 0.0384,-0.0769 -0.0396,-0.54211 0,-0.58176 0.0457,-0.0457 0.14821,0.0457 0.19392,0 0.0457,-0.0457 0,-0.12928 0,-0.19392 0,-0.25856 0,-0.51712 0,-0.77568 0,-0.0646 0,-0.12928 0,-0.19392 0,-0.0647 -0.0646,-0.19393 0,-0.19393 0.0646,0 0,0.12928 0,0.19393" id="path2999" inkscape:connector-curvature="0"/>
  <path style="fill:#000000;stroke:#8ecff5;stroke-width:1px;stroke-linecap:butt;stroke-linejoin:miter;stroke-opacity:1;fill-opacity:1" d="m 194.30883,188.67596 -0.19392,9.88997 z" id="path3001" inkscape:connector-curvature="0"/>
  <path style="fill:#47687b;stroke:#8ecff5;stroke-width:1px;stroke-linecap:butt;stroke-linejoin:miter;stroke-opacity:1;fill-opacity:1" d="m 192.56354,187.70635 c 0,-1.2019 0,-1.74253 0,-2.52097" id="path3003" inkscape:connector-curvature="0"/>
  <path style="fill:#47687b;stroke:#8ecff5;stroke-width:1px;stroke-linecap:butt;stroke-linejoin:miter;stroke-opacity:1;fill-opacity:1" d="m 191.2061,182.27656 0.38784,0.19393" id="path3005" inkscape:connector-curvature="0"/>
  <path style="fill:#facd8a;stroke:#8ecff5;stroke-width:1px;stroke-linecap:butt;stroke-linejoin:miter;stroke-opacity:1;fill-opacity:1" d="m 194.30883,159.78173 0,-20.94347 c 0.19392,-0.3232 0.37269,-0.65599 0.58176,-0.9696 0.23963,-0.35944 0.19393,-0.0178 0.19393,-0.38784 0,-0.0646 0,-0.25857 0,-0.19393 0,0.12929 0,0.51713 0,0.38785 0,-0.77569 0,-1.55137 0,-2.32706 0,-0.3232 0,-0.6464 0,-0.9696 0,-0.0646 0,-0.12928 0,-0.19392 0,-0.0646 -0.0289,-0.13611 0,-0.19392 0.0409,-0.0818 0.15303,-0.11216 0.19392,-0.19392 0.0578,-0.11564 -0.0914,-0.29643 0,-0.38785 0.0914,-0.0914 0.29642,0.0914 0.38784,0 0.0457,-0.0457 -0.0457,-0.14821 0,-0.19392 0.0457,-0.0457 0.14821,0.0457 0.19392,0 0.0457,-0.0457 -0.0457,-0.14821 0,-0.19392 0.0914,-0.0914 0.29643,0.0914 0.38784,0 0.0457,-0.0457 -0.0457,-0.14821 0,-0.19392 0.0457,-0.0457 0.13611,0.0289 0.19392,0 0.42877,-0.21438 0.0602,-0.12035 0.19392,-0.38784 0.40353,-0.80705 -0.0134,0.20731 0.38785,-0.19392 0.0914,-0.0914 -0.0578,-0.27221 0,-0.38784 0.23962,-0.47926 0.19392,0.0669 0.19392,-0.38785 0,-0.0646 0,-0.25856 0,-0.19392 0,0.12928 0,0.51713 0,0.38785 0,-0.25857 0,-0.51713 0,-0.77569 0,-0.0646 0,-0.25856 0,-0.19392 0,0.12928 0,0.51712 0,0.38784 0,-0.3232 0,-0.6464 0,-0.9696 0,-0.19392 0,-0.38784 0,-0.58177 0,-0.0646 -0.0646,-0.19392 0,-0.19392 0.0646,0 0,0.25857 0,0.19392 0,-0.12928 0,-0.25856 0,-0.38784 0,-0.0646 0.0457,-0.14821 0,-0.19392 -0.0914,-0.0914 -0.29643,0.0914 -0.38785,0 -0.0457,-0.0457 0.0457,-0.14821 0,-0.19392 -0.0914,-0.0914 -0.29642,0.0914 -0.38784,0 -0.45478,-0.45478 0.59745,0 0.19392,0 -0.16478,0 -0.69182,-0.41404 -0.77568,-0.58176 -0.0289,-0.0578 0.0457,-0.14822 0,-0.19392 -0.40123,-0.40123 0.0157,0.61313 -0.38784,-0.19392 -0.0289,-0.0578 0.0289,-0.13611 0,-0.19392 -0.0409,-0.0818 -0.15304,-0.11216 -0.19392,-0.19393 -0.0289,-0.0578 0.0289,-0.1361 0,-0.19392 -0.0409,-0.0818 -0.15304,-0.11215 -0.19392,-0.19392 -0.0289,-0.0578 0.0457,-0.14821 0,-0.19392 -0.0457,-0.0457 -0.12929,0 -0.19393,0 0,-0.0646 0.0457,-0.14821 0,-0.19392 -0.0457,-0.0457 -0.14821,0.0457 -0.19392,0 -0.0646,-0.0646 0.0646,-0.32326 0,-0.38784 -0.0457,-0.0457 -0.14821,0.0457 -0.19392,0 -0.0396,-0.0397 0.0385,-0.50488 0,-0.58176 -0.0409,-0.0818 -0.15304,-0.11216 -0.19392,-0.19393 -0.0289,-0.0578 0.0457,-0.14821 0,-0.19392 -0.0457,-0.0457 -0.14821,0.0457 -0.19392,0 -0.006,-0.006 0,-0.53473 0,-0.58176 0,-0.0646 0,-0.25856 0,-0.19392 0,0.12928 0,0.51712 0,0.38784 0,-0.38784 0,-0.77568 0,-1.16352 0,-0.0647 -0.0457,-0.14822 0,-0.19393 0.0457,-0.0457 0.14821,0.0457 0.19392,0 0.0396,-0.0396 -0.0384,-0.50487 0,-0.58176 0.0409,-0.0818 0.15304,-0.11216 0.19392,-0.19392 0.0289,-0.0578 0,-0.12928 0,-0.19392 0,-0.0646 0,-0.12928 0,-0.19392 0,-0.0646 0,-0.12928 0,-0.19392 0,-0.0646 -0.0646,-0.19392 0,-0.19392 0.0646,0 0,0.25856 0,0.19392 0,-0.12928 -0.0578,-0.27221 0,-0.38784 0.0289,-0.0578 0.14822,0.0457 0.19392,0 0.0457,-0.0457 0,-0.12929 0,-0.19393 0.0646,0 0.14822,0.0457 0.19392,0 0.0914,-0.0914 -0.0578,-0.27221 0,-0.38784 0.0409,-0.0818 0.15304,-0.11215 0.19393,-0.19392 0.0384,-0.0769 -0.0396,-0.54212 0,-0.58176 0.0457,-0.0457 0.14821,0.0457 0.19392,0 0.0531,-0.0531 -0.0526,-0.67049 0,-0.77569 0.0409,-0.0818 0.15304,-0.11215 0.19392,-0.19392 0.0255,-0.051 0,-0.67428 0,-0.77568 0,-0.51712 0,-1.03425 0,-1.55137 0,-0.0646 0,-0.12928 0,-0.19392 0,-0.0646 -0.0289,-0.1361 0,-0.19392 0.0409,-0.0818 0.15304,-0.11216 0.19392,-0.19392 0.0289,-0.0578 -0.0457,-0.14821 0,-0.19392 0.0457,-0.0457 0.14821,0.0457 0.19392,0 0.0647,-0.0647 -0.0647,-0.3232 0,-0.38784 0.0457,-0.0457 0.14821,0.0457 0.19392,0 0.0457,-0.0457 -0.0289,-0.13611 0,-0.19393 0.40353,-0.80705 -0.0134,0.20731 0.38784,-0.19392 0.0457,-0.0457 -0.0457,-0.14821 0,-0.19392 0.0457,-0.0457 0.14822,0.0457 0.19392,0 0.0457,-0.0457 -0.0289,-0.1361 0,-0.19392 0.0409,-0.0818 0.15304,-0.11215 0.19392,-0.19392 0.0609,-0.12188 -0.0609,-0.6538 0,-0.77568 0.0409,-0.0818 0.15304,-0.11216 0.19393,-0.19392 0.0251,-0.0501 0,-1.02608 0,-1.16353 0,-0.0646 -0.0457,-0.14821 0,-0.19392 0.0457,-0.0457 0.14821,0.0457 0.19392,0 0.097,-0.097 -0.097,-0.4848 0,-0.58176 0.0457,-0.0457 0.14821,0.0457 0.19392,0 0.0457,-0.0457 0,-0.12928 0,-0.19393 0,-0.13487 -0.0351,-0.89947 0,-0.9696 0.0818,-0.16353 0.30608,-0.22431 0.38784,-0.38784 0.0776,-0.15514 -0.0776,-0.42663 0,-0.58176 0.0409,-0.0818 0.15304,-0.11216 0.19392,-0.19393 0.0578,-0.11563 -0.0578,-0.27221 0,-0.38784 0.0409,-0.0818 0.15304,-0.11215 0.19392,-0.19392 0.0384,-0.0769 -0.0396,-0.54212 0,-0.58176 0.0457,-0.0457 0.14821,0.0457 0.19392,0 0.0457,-0.0457 -0.0457,-0.14822 0,-0.19392 0.0457,-0.0457 0.14822,0.0457 0.19392,0 0.0914,-0.0914 -0.0578,-0.27221 0,-0.38784 0.0409,-0.0818 0.15304,-0.11216 0.19392,-0.19393 0.0384,-0.0769 -0.0396,-0.54211 0,-0.58176 0.0457,-0.0457 0.14822,0.0457 0.19393,0 0.008,-0.008 0,-0.70447 0,-0.77568 0,-0.0646 0,-0.12928 0,-0.19392 0,-0.0646 -0.0457,-0.14822 0,-0.19392 0.0457,-0.0457 0.14821,0.0457 0.19392,0 0.0457,-0.0457 -0.0457,-0.14822 0,-0.19393 0.0457,-0.0457 0.14821,0.0457 0.19392,0 0.097,-0.097 -0.097,-0.4848 0,-0.58176 0.0457,-0.0457 0.14821,0.0457 0.19392,0 0.0457,-0.0457 0,-0.12928 0,-0.19392 0,-0.0646 0,-0.12928 0,-0.19392 0,-0.0646 0,-0.12928 0,-0.19392 0,-0.0646 -0.0457,-0.14822 0,-0.19392 0.0457,-0.0457 0.14821,0.0457 0.19392,0 0.0457,-0.0457 -0.0457,-0.14822 0,-0.19392 0.0457,-0.0457 0.14821,0.0457 0.19392,0 0.097,-0.097 -0.097,-0.48481 0,-0.58177 0.25856,-0.25856 0.19392,0.32321 0.19392,-0.19392 0,-0.0646 0,-0.12928 0,-0.19392 0,-0.0646 -0.0457,-0.14821 0,-0.19392 0.25856,-0.25856 0.19392,0.3232 0.19392,-0.19392 0,-0.0646 0,-0.12928 0,-0.19392 0,-0.0646 -0.0457,-0.14821 0,-0.19392 0.0457,-0.0457 0.19392,-0.0646 0.19392,0 0,0.0646 -0.12928,0 -0.19392,0" id="path3007" inkscape:connector-curvature="0"/>
  <path style="fill:#8ecff5;stroke:none;stroke-width:1px;stroke-linecap:butt;stroke-linejoin:miter;stroke-opacity:1;fill-opacity:1" d="m 201.98195,102.10991 0.82274,-5.210671 c 2.78883,-1.974414 13.94033,-12.596521 -0.95986,-18.100216 l -1.50835,2.468212 -4.66218,0.548491 c -5.0779,3.399052 -1.7194,3.98597 -1.91972,5.75916 2.02064,1.898349 4.19273,3.779871 3.01671,6.033405 3.6603,2.833873 3.90835,5.667746 5.21066,8.501619 z" id="path3009" inkscape:connector-curvature="0" sodipodi:nodetypes="cccccccc"/>
  <path style="fill:#8ecff5;fill-opacity:1;stroke:none" d="m 203.21606,57.956351 -2.46821,1.782596 -3.0167,0 c -2.43198,2.264896 -0.3038,3.732558 -0.13713,5.347792 l 6.44478,2.056842 c 6.95766,-7.774079 2.41672,-7.635271 -0.82274,-9.18723 z" id="path3011" inkscape:connector-curvature="0" sodipodi:nodetypes="cccccc"/>
  <svg:switch style="font-style:normal;font-variant:normal;font-weight:normal;font-stretch:normal;font-size:17.5px;line-height:125%;font-family:sans-serif;-inkscape-font-specification:sans-serif;text-align:start;letter-spacing:0px;word-spacing:0px;writing-mode:lr-tb;text-anchor:start;fill:#000000;fill-opacity:1;stroke:none"><svg:text xml:space="preserve" style="font-style:normal;font-variant:normal;font-weight:normal;font-stretch:normal;font-size:17.5px;line-height:125%;font-family:sans-serif;-inkscape-font-specification:sans-serif;text-align:start;letter-spacing:0px;word-spacing:0px;writing-mode:lr-tb;text-anchor:start;fill:#000000;fill-opacity:1;stroke:none" x="264.75552" y="168.13893" id="text3791-pl" sodipodi:linespacing="125%" systemLanguage="pl"><svg:tspan sodipodi:role="line" id="tspan3793-pl" x="264.75552" y="168.13893" style="font-style:normal;font-variant:normal;font-weight:normal;font-stretch:normal;font-size:17.5px;font-family:sans-serif;-inkscape-font-specification:sans-serif;text-align:center;text-anchor:middle">Brytyjski Mandat Palestyny</svg:tspan><svg:tspan sodipodi:role="line" x="264.75552" y="185.03018" style="font-style:normal;font-variant:normal;font-weight:normal;font-stretch:normal;font-size:12.5px;font-family:sans-serif;-inkscape-font-specification:sans-serif;text-align:center;text-anchor:middle" id="tspan3379-pl">(oficjalnie od 1923)</svg:tspan></svg:text><svg:text xml:space="preserve" style="font-style:normal;font-variant:normal;font-weight:normal;font-stretch:normal;font-size:17.5px;line-height:125%;font-family:sans-serif;-inkscape-font-specification:sans-serif;text-align:start;letter-spacing:0px;word-spacing:0px;writing-mode:lr-tb;text-anchor:start;fill:#000000;fill-opacity:1;stroke:none" x="264.75552" y="168.13893" id="text3791-lt" sodipodi:linespacing="125%" systemLanguage="lt"><svg:tspan sodipodi:role="line" id="tspan3793-lt" x="264.75552" y="168.13893" style="font-style:normal;font-variant:normal;font-weight:normal;font-stretch:normal;font-size:17.5px;font-family:sans-serif;-inkscape-font-specification:sans-serif;text-align:center;text-anchor:middle">Britų Palestinos mandatas</svg:tspan><svg:tspan sodipodi:role="line" x="264.75552" y="185.03018" style="font-style:normal;font-variant:normal;font-weight:normal;font-stretch:normal;font-size:12.5px;font-family:sans-serif;-inkscape-font-specification:sans-serif;text-align:center;text-anchor:middle" id="tspan3379-lt">(oficialiai nuo 1923)</svg:tspan></svg:text><svg:text xml:space="preserve" style="font-style:normal;font-variant:normal;font-weight:normal;font-stretch:normal;font-size:17.5px;line-height:125%;font-family:sans-serif;-inkscape-font-specification:sans-serif;text-align:start;letter-spacing:0px;word-spacing:0px;writing-mode:lr-tb;text-anchor:start;fill:#000000;fill-opacity:1;stroke:none" x="264.75552" y="168.13893" id="text3791-sl" sodipodi:linespacing="125%" systemLanguage="sl"><svg:tspan sodipodi:role="line" id="tspan3793-sl" x="264.75552" y="168.13893" style="font-style:normal;font-variant:normal;font-weight:normal;font-stretch:normal;font-size:17.5px;font-family:sans-serif;-inkscape-font-specification:sans-serif;text-align:center;text-anchor:middle">Britanski mandat za Palestino</svg:tspan><svg:tspan sodipodi:role="line" x="264.75552" y="185.03018" style="font-style:normal;font-variant:normal;font-weight:normal;font-stretch:normal;font-size:12.5px;font-family:sans-serif;-inkscape-font-specification:sans-serif;text-align:center;text-anchor:middle" id="tspan3379-sl">(pravni instrument; 1923)</svg:tspan></svg:text><svg:text xml:space="preserve" style="font-style:normal;font-variant:normal;font-weight:normal;font-stretch:normal;font-size:17.5px;line-height:125%;font-family:sans-serif;-inkscape-font-specification:sans-serif;text-align:start;letter-spacing:0px;word-spacing:0px;writing-mode:lr-tb;text-anchor:start;fill:#000000;fill-opacity:1;stroke:none" x="264.75552" y="168.13893" id="text3791" sodipodi:linespacing="125%"><svg:tspan sodipodi:role="line" id="tspan3793" x="264.75552" y="168.13893" style="font-style:normal;font-variant:normal;font-weight:normal;font-stretch:normal;font-size:17.5px;font-family:sans-serif;-inkscape-font-specification:sans-serif;text-align:center;text-anchor:middle">British Mandate for Palestine</svg:tspan><svg:tspan sodipodi:role="line" x="264.75552" y="185.03018" style="font-style:normal;font-variant:normal;font-weight:normal;font-stretch:normal;font-size:12.5px;font-family:sans-serif;-inkscape-font-specification:sans-serif;text-align:center;text-anchor:middle" id="tspan3379">(legal instrument; 1923)</svg:tspan></svg:text></svg:switch>
  <svg:switch style="font-style:normal;font-variant:normal;font-weight:normal;font-stretch:normal;font-size:17.5px;line-height:125%;font-family:sans-serif;-inkscape-font-specification:sans-serif;text-align:start;letter-spacing:0px;word-spacing:0px;writing-mode:lr-tb;text-anchor:start;fill:#000000;fill-opacity:1;stroke:none"><svg:text xml:space="preserve" style="font-style:normal;font-variant:normal;font-weight:normal;font-stretch:normal;font-size:17.5px;line-height:125%;font-family:sans-serif;-inkscape-font-specification:sans-serif;text-align:start;letter-spacing:0px;word-spacing:0px;writing-mode:lr-tb;text-anchor:start;fill:#000000;fill-opacity:1;stroke:none" x="124.63999" y="247.13959" id="text3795-pl" sodipodi:linespacing="125%" systemLanguage="pl"><svg:tspan sodipodi:role="line" id="tspan3797-pl" x="124.63999" y="247.13959" style="font-style:normal;font-variant:normal;font-weight:normal;font-stretch:normal;font-size:17.5px;font-family:sans-serif;-inkscape-font-specification:sans-serif;text-align:center;text-anchor:middle">Palestyna</svg:tspan><svg:tspan sodipodi:role="line" x="124.63999" y="264.03085" id="tspan3375-pl" style="font-style:normal;font-variant:normal;font-weight:normal;font-stretch:normal;font-size:12.5px;font-family:sans-serif;-inkscape-font-specification:sans-serif;text-align:center;text-anchor:middle">(1920-48)</svg:tspan></svg:text><svg:text xml:space="preserve" style="font-style:normal;font-variant:normal;font-weight:normal;font-stretch:normal;font-size:17.5px;line-height:125%;font-family:sans-serif;-inkscape-font-specification:sans-serif;text-align:start;letter-spacing:0px;word-spacing:0px;writing-mode:lr-tb;text-anchor:start;fill:#000000;fill-opacity:1;stroke:none" x="124.63999" y="247.13959" id="text3795-lt" sodipodi:linespacing="125%" systemLanguage="lt"><svg:tspan sodipodi:role="line" id="tspan3797-lt" x="124.63999" y="247.13959" style="font-style:normal;font-variant:normal;font-weight:normal;font-stretch:normal;font-size:17.5px;font-family:sans-serif;-inkscape-font-specification:sans-serif;text-align:center;text-anchor:middle">Palestina</svg:tspan><svg:tspan sodipodi:role="line" x="124.63999" y="264.03085" id="tspan3375-lt" style="font-style:normal;font-variant:normal;font-weight:normal;font-stretch:normal;font-size:12.5px;font-family:sans-serif;-inkscape-font-specification:sans-serif;text-align:center;text-anchor:middle">(1920–1948)</svg:tspan></svg:text><svg:text xml:space="preserve" style="font-style:normal;font-variant:normal;font-weight:normal;font-stretch:normal;font-size:17.5px;line-height:125%;font-family:sans-serif;-inkscape-font-specification:sans-serif;text-align:start;letter-spacing:0px;word-spacing:0px;writing-mode:lr-tb;text-anchor:start;fill:#000000;fill-opacity:1;stroke:none" x="124.63999" y="247.13959" id="text3795-sl" sodipodi:linespacing="125%" systemLanguage="sl"><svg:tspan sodipodi:role="line" id="tspan3797-sl" x="124.63999" y="247.13959" style="font-style:normal;font-variant:normal;font-weight:normal;font-stretch:normal;font-size:17.5px;font-family:sans-serif;-inkscape-font-specification:sans-serif;text-align:center;text-anchor:middle">Palestina</svg:tspan><svg:tspan sodipodi:role="line" x="124.63999" y="264.03085" id="tspan3375-sl" style="font-style:normal;font-variant:normal;font-weight:normal;font-stretch:normal;font-size:12.5px;font-family:sans-serif;-inkscape-font-specification:sans-serif;text-align:center;text-anchor:middle">(1920-48)</svg:tspan></svg:text><svg:text xml:space="preserve" style="font-style:normal;font-variant:normal;font-weight:normal;font-stretch:normal;font-size:17.5px;line-height:125%;font-family:sans-serif;-inkscape-font-specification:sans-serif;text-align:start;letter-spacing:0px;word-spacing:0px;writing-mode:lr-tb;text-anchor:start;fill:#000000;fill-opacity:1;stroke:none" x="124.63999" y="247.13959" id="text3795" sodipodi:linespacing="125%"><svg:tspan sodipodi:role="line" id="tspan3797" x="124.63999" y="247.13959" style="font-style:normal;font-variant:normal;font-weight:normal;font-stretch:normal;font-size:17.5px;font-family:sans-serif;-inkscape-font-specification:sans-serif;text-align:center;text-anchor:middle">Palestine</svg:tspan><svg:tspan sodipodi:role="line" x="124.63999" y="264.03085" id="tspan3375" style="font-style:normal;font-variant:normal;font-weight:normal;font-stretch:normal;font-size:12.5px;font-family:sans-serif;-inkscape-font-specification:sans-serif;text-align:center;text-anchor:middle">(1920-48)</svg:tspan></svg:text></svg:switch>
  <svg:switch style="font-style:normal;font-variant:normal;font-weight:normal;font-stretch:normal;font-size:17.5px;line-height:125%;font-family:sans-serif;-inkscape-font-specification:sans-serif;text-align:start;letter-spacing:0px;word-spacing:0px;writing-mode:lr-tb;text-anchor:start;fill:#000000;fill-opacity:1;stroke:none"><svg:text xml:space="preserve" style="font-style:normal;font-variant:normal;font-weight:normal;font-stretch:normal;font-size:17.5px;line-height:125%;font-family:sans-serif;-inkscape-font-specification:sans-serif;text-align:start;letter-spacing:0px;word-spacing:0px;writing-mode:lr-tb;text-anchor:start;fill:#000000;fill-opacity:1;stroke:none" x="302.36801" y="306.99942" id="text3799-pl" sodipodi:linespacing="125%" systemLanguage="pl"><svg:tspan sodipodi:role="line" id="tspan3801-pl" x="302.36801" y="306.99942" style="font-style:normal;font-variant:normal;font-weight:normal;font-stretch:normal;font-size:17.5px;font-family:sans-serif;-inkscape-font-specification:sans-serif;text-align:center;text-anchor:middle">Emirat Transjordanii</svg:tspan><svg:tspan sodipodi:role="line" x="302.36801" y="323.89069" id="tspan3377-pl" style="font-style:normal;font-variant:normal;font-weight:normal;font-stretch:normal;font-size:12.5px;font-family:sans-serif;-inkscape-font-specification:sans-serif;text-align:center;text-anchor:middle">(1921-46)</svg:tspan></svg:text><svg:text xml:space="preserve" style="font-style:normal;font-variant:normal;font-weight:normal;font-stretch:normal;font-size:17.5px;line-height:125%;font-family:sans-serif;-inkscape-font-specification:sans-serif;text-align:start;letter-spacing:0px;word-spacing:0px;writing-mode:lr-tb;text-anchor:start;fill:#000000;fill-opacity:1;stroke:none" x="302.36801" y="306.99942" id="text3799-lt" sodipodi:linespacing="125%" systemLanguage="lt"><svg:tspan sodipodi:role="line" id="tspan3801-lt" x="302.36801" y="306.99942" style="font-style:normal;font-variant:normal;font-weight:normal;font-stretch:normal;font-size:17.5px;font-family:sans-serif;-inkscape-font-specification:sans-serif;text-align:center;text-anchor:middle">Transjordanijos emyratas</svg:tspan><svg:tspan sodipodi:role="line" x="302.36801" y="323.89069" id="tspan3377-lt" style="font-style:normal;font-variant:normal;font-weight:normal;font-stretch:normal;font-size:12.5px;font-family:sans-serif;-inkscape-font-specification:sans-serif;text-align:center;text-anchor:middle">(1921–1946)</svg:tspan></svg:text><svg:text xml:space="preserve" style="font-style:normal;font-variant:normal;font-weight:normal;font-stretch:normal;font-size:17.5px;line-height:125%;font-family:sans-serif;-inkscape-font-specification:sans-serif;text-align:start;letter-spacing:0px;word-spacing:0px;writing-mode:lr-tb;text-anchor:start;fill:#000000;fill-opacity:1;stroke:none" x="302.36801" y="306.99942" id="text3799-sl" sodipodi:linespacing="125%" systemLanguage="sl"><svg:tspan sodipodi:role="line" id="tspan3801-sl" x="302.36801" y="306.99942" style="font-style:normal;font-variant:normal;font-weight:normal;font-stretch:normal;font-size:17.5px;font-family:sans-serif;-inkscape-font-specification:sans-serif;text-align:center;text-anchor:middle">Transjordanski emirat</svg:tspan><svg:tspan sodipodi:role="line" x="302.36801" y="323.89069" id="tspan3377-sl" style="font-style:normal;font-variant:normal;font-weight:normal;font-stretch:normal;font-size:12.5px;font-family:sans-serif;-inkscape-font-specification:sans-serif;text-align:center;text-anchor:middle">(1921-46)</svg:tspan></svg:text><svg:text xml:space="preserve" style="font-style:normal;font-variant:normal;font-weight:normal;font-stretch:normal;font-size:17.5px;line-height:125%;font-family:sans-serif;-inkscape-font-specification:sans-serif;text-align:start;letter-spacing:0px;word-spacing:0px;writing-mode:lr-tb;text-anchor:start;fill:#000000;fill-opacity:1;stroke:none" x="302.36801" y="306.99942" id="text3799" sodipodi:linespacing="125%"><svg:tspan sodipodi:role="line" id="tspan3801" x="302.36801" y="306.99942" style="font-style:normal;font-variant:normal;font-weight:normal;font-stretch:normal;font-size:17.5px;font-family:sans-serif;-inkscape-font-specification:sans-serif;text-align:center;text-anchor:middle">Emirate of Transjordan</svg:tspan><svg:tspan sodipodi:role="line" x="302.36801" y="323.89069" id="tspan3377" style="font-style:normal;font-variant:normal;font-weight:normal;font-stretch:normal;font-size:12.5px;font-family:sans-serif;-inkscape-font-specification:sans-serif;text-align:center;text-anchor:middle">(1921-46)</svg:tspan></svg:text></svg:switch>
  <svg:switch style="font-style:normal;font-variant:normal;font-weight:normal;font-stretch:normal;font-size:17.5px;line-height:125%;font-family:sans-serif;-inkscape-font-specification:sans-serif;text-align:start;letter-spacing:0px;word-spacing:0px;writing-mode:lr-tb;text-anchor:start;fill:#666666;fill-opacity:1;stroke:none"><svg:text xml:space="preserve" style="font-style:normal;font-variant:normal;font-weight:normal;font-stretch:normal;font-size:17.5px;line-height:125%;font-family:sans-serif;-inkscape-font-specification:sans-serif;text-align:start;letter-spacing:0px;word-spacing:0px;writing-mode:lr-tb;text-anchor:start;fill:#666666;fill-opacity:1;stroke:none" x="81.883018" y="37.805428" id="text3803-pl" sodipodi:linespacing="125%" systemLanguage="pl"><svg:tspan sodipodi:role="line" id="tspan3805-pl" x="81.883018" y="37.805428" style="text-align:center;text-anchor:middle">Morze</svg:tspan><svg:tspan sodipodi:role="line" x="81.883018" y="59.680428" id="tspan3807-pl" style="text-align:center;text-anchor:middle">Śródziemne</svg:tspan></svg:text><svg:text xml:space="preserve" style="font-style:normal;font-variant:normal;font-weight:normal;font-stretch:normal;font-size:17.5px;line-height:125%;font-family:sans-serif;-inkscape-font-specification:sans-serif;text-align:start;letter-spacing:0px;word-spacing:0px;writing-mode:lr-tb;text-anchor:start;fill:#666666;fill-opacity:1;stroke:none" x="81.883018" y="37.805428" id="text3803-lt" sodipodi:linespacing="125%" systemLanguage="lt"><svg:tspan sodipodi:role="line" id="tspan3805-lt" x="81.883018" y="37.805428" style="text-align:center;text-anchor:middle">Viduržemio</svg:tspan><svg:tspan sodipodi:role="line" x="81.883018" y="59.680428" id="tspan3807-lt" style="text-align:center;text-anchor:middle">jūra</svg:tspan></svg:text><svg:text xml:space="preserve" style="font-style:normal;font-variant:normal;font-weight:normal;font-stretch:normal;font-size:17.5px;line-height:125%;font-family:sans-serif;-inkscape-font-specification:sans-serif;text-align:start;letter-spacing:0px;word-spacing:0px;writing-mode:lr-tb;text-anchor:start;fill:#666666;fill-opacity:1;stroke:none" x="81.883018" y="37.805428" id="text3803-sl" sodipodi:linespacing="125%" systemLanguage="sl"><svg:tspan sodipodi:role="line" id="tspan3805-sl" x="81.883018" y="37.805428" style="text-align:center;text-anchor:middle">Sredozemsko</svg:tspan><svg:tspan sodipodi:role="line" x="81.883018" y="59.680428" id="tspan3807-sl" style="text-align:center;text-anchor:middle">morje</svg:tspan></svg:text><svg:text xml:space="preserve" style="font-style:normal;font-variant:normal;font-weight:normal;font-stretch:normal;font-size:17.5px;line-height:125%;font-family:sans-serif;-inkscape-font-specification:sans-serif;text-align:start;letter-spacing:0px;word-spacing:0px;writing-mode:lr-tb;text-anchor:start;fill:#666666;fill-opacity:1;stroke:none" x="81.883018" y="37.805428" id="text3803" sodipodi:linespacing="125%"><svg:tspan sodipodi:role="line" id="tspan3805" x="81.883018" y="37.805428" style="text-align:center;text-anchor:middle">Mediterranean</svg:tspan><svg:tspan sodipodi:role="line" x="81.883018" y="59.680428" id="tspan3807" style="text-align:center;text-anchor:middle">Sea</svg:tspan></svg:text></svg:switch>
  <svg:switch style="font-style:normal;font-variant:normal;font-weight:normal;font-stretch:normal;font-size:17.5px;line-height:125%;font-family:sans-serif;-inkscape-font-specification:sans-serif;text-align:start;letter-spacing:0px;word-spacing:0px;writing-mode:lr-tb;text-anchor:start;fill:#696e71;fill-opacity:1;stroke:none;"><svg:text xml:space="preserve" style="font-style:normal;font-variant:normal;font-weight:normal;font-stretch:normal;font-size:17.5px;line-height:125%;font-family:sans-serif;-inkscape-font-specification:sans-serif;text-align:start;letter-spacing:0px;word-spacing:0px;writing-mode:lr-tb;text-anchor:start;fill:#696e71;fill-opacity:1;stroke:none;" x="24.046204" y="428.75015" id="text3809-pl" sodipodi:linespacing="125%" systemLanguage="pl"><svg:tspan sodipodi:role="line" id="tspan3811-pl" x="24.046204" y="428.75015">EGIPT</svg:tspan></svg:text><svg:text xml:space="preserve" style="font-style:normal;font-variant:normal;font-weight:normal;font-stretch:normal;font-size:17.5px;line-height:125%;font-family:sans-serif;-inkscape-font-specification:sans-serif;text-align:start;letter-spacing:0px;word-spacing:0px;writing-mode:lr-tb;text-anchor:start;fill:#696e71;fill-opacity:1;stroke:none;" x="24.046204" y="428.75015" id="text3809-lt" sodipodi:linespacing="125%" systemLanguage="lt"><svg:tspan sodipodi:role="line" id="tspan3811-lt" x="24.046204" y="428.75015">EGIPTAS</svg:tspan></svg:text><svg:text xml:space="preserve" style="font-style:normal;font-variant:normal;font-weight:normal;font-stretch:normal;font-size:17.5px;line-height:125%;font-family:sans-serif;-inkscape-font-specification:sans-serif;text-align:start;letter-spacing:0px;word-spacing:0px;writing-mode:lr-tb;text-anchor:start;fill:#696e71;fill-opacity:1;stroke:none;" x="24.046204" y="428.75015" id="text3809-sl" sodipodi:linespacing="125%" systemLanguage="sl"><svg:tspan sodipodi:role="line" id="tspan3811-sl" x="24.046204" y="428.75015">EGIPT</svg:tspan></svg:text><svg:text xml:space="preserve" style="font-style:normal;font-variant:normal;font-weight:normal;font-stretch:normal;font-size:17.5px;line-height:125%;font-family:sans-serif;-inkscape-font-specification:sans-serif;text-align:start;letter-spacing:0px;word-spacing:0px;writing-mode:lr-tb;text-anchor:start;fill:#696e71;fill-opacity:1;stroke:none;" x="24.046204" y="428.75015" id="text3809" sodipodi:linespacing="125%"><svg:tspan sodipodi:role="line" id="tspan3811" x="24.046204" y="428.75015">EGYPT</svg:tspan></svg:text></svg:switch>
  <svg:switch style="font-size:17.5px;font-style:normal;font-variant:normal;font-weight:normal;font-stretch:normal;text-align:start;line-height:125%;letter-spacing:0px;word-spacing:0px;writing-mode:lr-tb;text-anchor:start;fill:#696e71;fill-opacity:1;stroke:none;font-family:sans-serif;-inkscape-font-specification:sans-serif;"><svg:text xml:space="preserve" style="font-size:17.5px;font-style:normal;font-variant:normal;font-weight:normal;font-stretch:normal;text-align:start;line-height:125%;letter-spacing:0px;word-spacing:0px;writing-mode:lr-tb;text-anchor:start;fill:#696e71;fill-opacity:1;stroke:none;font-family:sans-serif;-inkscape-font-specification:sans-serif;" x="559.26813" y="431.07718" id="text3813-lt" sodipodi:linespacing="125%" systemLanguage="lt"><svg:tspan sodipodi:role="line" id="tspan3815-lt" x="559.26813" y="431.07718">ARABIJA</svg:tspan></svg:text><svg:text xml:space="preserve" style="font-size:17.5px;font-style:normal;font-variant:normal;font-weight:normal;font-stretch:normal;text-align:start;line-height:125%;letter-spacing:0px;word-spacing:0px;writing-mode:lr-tb;text-anchor:start;fill:#696e71;fill-opacity:1;stroke:none;font-family:sans-serif;-inkscape-font-specification:sans-serif;" x="559.26813" y="431.07718" id="text3813-sl" sodipodi:linespacing="125%" systemLanguage="sl"><svg:tspan sodipodi:role="line" id="tspan3815-sl" x="559.26813" y="431.07718">ARABIJA</svg:tspan></svg:text><svg:text xml:space="preserve" style="font-size:17.5px;font-style:normal;font-variant:normal;font-weight:normal;font-stretch:normal;text-align:start;line-height:125%;letter-spacing:0px;word-spacing:0px;writing-mode:lr-tb;text-anchor:start;fill:#696e71;fill-opacity:1;stroke:none;font-family:sans-serif;-inkscape-font-specification:sans-serif;" x="559.26813" y="431.07718" id="text3813" sodipodi:linespacing="125%"><svg:tspan sodipodi:role="line" id="tspan3815" x="559.26813" y="431.07718">ARABIA</svg:tspan></svg:text></svg:switch>
  <svg:switch style="font-style:normal;font-variant:normal;font-weight:normal;font-stretch:normal;font-size:17.5px;line-height:125%;font-family:sans-serif;-inkscape-font-specification:sans-serif;text-align:start;letter-spacing:0px;word-spacing:0px;writing-mode:lr-tb;text-anchor:start;fill:#696e71;fill-opacity:1;stroke:none"><svg:text xml:space="preserve" style="font-style:normal;font-variant:normal;font-weight:normal;font-stretch:normal;font-size:17.5px;line-height:125%;font-family:sans-serif;-inkscape-font-specification:sans-serif;text-align:start;letter-spacing:0px;word-spacing:0px;writing-mode:lr-tb;text-anchor:start;fill:#696e71;fill-opacity:1;stroke:none" x="635.28192" y="59.548534" id="text3817-pl" sodipodi:linespacing="125%" systemLanguage="pl"><svg:tspan sodipodi:role="line" id="tspan3819-pl" x="635.28192" y="59.548534" style="text-align:center;text-anchor:middle">IRAK</svg:tspan><svg:tspan sodipodi:role="line" x="635.28192" y="81.423531" id="tspan3385-pl" style="text-align:center;text-anchor:middle">(Bryt.)</svg:tspan></svg:text><svg:text xml:space="preserve" style="font-style:normal;font-variant:normal;font-weight:normal;font-stretch:normal;font-size:17.5px;line-height:125%;font-family:sans-serif;-inkscape-font-specification:sans-serif;text-align:start;letter-spacing:0px;word-spacing:0px;writing-mode:lr-tb;text-anchor:start;fill:#696e71;fill-opacity:1;stroke:none" x="635.28192" y="59.548534" id="text3817-lt" sodipodi:linespacing="125%" systemLanguage="lt"><svg:tspan sodipodi:role="line" id="tspan3819-lt" x="635.28192" y="59.548534" style="text-align:center;text-anchor:middle">IRAKAS</svg:tspan><svg:tspan sodipodi:role="line" x="635.28192" y="81.423531" id="tspan3385-lt" style="text-align:center;text-anchor:middle">(brit.)</svg:tspan></svg:text><svg:text xml:space="preserve" style="font-style:normal;font-variant:normal;font-weight:normal;font-stretch:normal;font-size:17.5px;line-height:125%;font-family:sans-serif;-inkscape-font-specification:sans-serif;text-align:start;letter-spacing:0px;word-spacing:0px;writing-mode:lr-tb;text-anchor:start;fill:#696e71;fill-opacity:1;stroke:none" x="635.28192" y="59.548534" id="text3817-sl" sodipodi:linespacing="125%" systemLanguage="sl"><svg:tspan sodipodi:role="line" id="tspan3819-sl" x="635.28192" y="59.548534" style="text-align:center;text-anchor:middle">IRAK</svg:tspan><svg:tspan sodipodi:role="line" x="635.28192" y="81.423531" id="tspan3385-sl" style="text-align:center;text-anchor:middle">(Gbr.)</svg:tspan></svg:text><svg:text xml:space="preserve" style="font-style:normal;font-variant:normal;font-weight:normal;font-stretch:normal;font-size:17.5px;line-height:125%;font-family:sans-serif;-inkscape-font-specification:sans-serif;text-align:start;letter-spacing:0px;word-spacing:0px;writing-mode:lr-tb;text-anchor:start;fill:#696e71;fill-opacity:1;stroke:none" x="635.28192" y="59.548534" id="text3817" sodipodi:linespacing="125%"><svg:tspan sodipodi:role="line" id="tspan3819" x="635.28192" y="59.548534" style="text-align:center;text-anchor:middle">IRAQ</svg:tspan><svg:tspan sodipodi:role="line" x="635.28192" y="81.423531" id="tspan3385" style="text-align:center;text-anchor:middle">(Br.)</svg:tspan></svg:text></svg:switch>
  
  <svg:switch style="font-style:normal;font-variant:normal;font-weight:normal;font-stretch:normal;font-size:17.5px;line-height:125%;font-family:sans-serif;-inkscape-font-specification:sans-serif;text-align:center;letter-spacing:0px;word-spacing:0px;writing-mode:lr-tb;text-anchor:middle;fill:#696e71;fill-opacity:1;stroke:none"><svg:text xml:space="preserve" style="font-style:normal;font-variant:normal;font-weight:normal;font-stretch:normal;font-size:17.5px;line-height:125%;font-family:sans-serif;-inkscape-font-specification:sans-serif;text-align:center;letter-spacing:0px;word-spacing:0px;writing-mode:lr-tb;text-anchor:middle;fill:#696e71;fill-opacity:1;stroke:none" x="353.60562" y="40.513187" id="text3825-pl" sodipodi:linespacing="125%" systemLanguage="pl"><svg:tspan sodipodi:role="line" id="tspan3827-pl" x="353.60562" y="40.513187" style="font-style:normal;font-variant:normal;font-weight:normal;font-stretch:normal;font-size:17.5px;font-family:sans-serif;-inkscape-font-specification:sans-serif;text-align:center;text-anchor:middle">SYRIA I LIBAN</svg:tspan><svg:tspan sodipodi:role="line" x="353.60562" y="62.388187" style="font-style:normal;font-variant:normal;font-weight:normal;font-stretch:normal;font-size:17.5px;font-family:sans-serif;-inkscape-font-specification:sans-serif;text-align:center;text-anchor:middle" id="tspan3381-pl">(Mandaty francuskie)</svg:tspan></svg:text><svg:text xml:space="preserve" style="font-style:normal;font-variant:normal;font-weight:normal;font-stretch:normal;font-size:17.5px;line-height:125%;font-family:sans-serif;-inkscape-font-specification:sans-serif;text-align:center;letter-spacing:0px;word-spacing:0px;writing-mode:lr-tb;text-anchor:middle;fill:#696e71;fill-opacity:1;stroke:none" x="353.60562" y="40.513187" id="text3825-lt" sodipodi:linespacing="125%" systemLanguage="lt"><svg:tspan sodipodi:role="line" id="tspan3827-lt" x="353.60562" y="40.513187" style="font-style:normal;font-variant:normal;font-weight:normal;font-stretch:normal;font-size:17.5px;font-family:sans-serif;-inkscape-font-specification:sans-serif;text-align:center;text-anchor:middle">SIRIJA IR LIBANAS</svg:tspan><svg:tspan sodipodi:role="line" x="353.60562" y="62.388187" style="font-style:normal;font-variant:normal;font-weight:normal;font-stretch:normal;font-size:17.5px;font-family:sans-serif;-inkscape-font-specification:sans-serif;text-align:center;text-anchor:middle" id="tspan3381-lt">(pranc.)</svg:tspan></svg:text><svg:text xml:space="preserve" style="font-style:normal;font-variant:normal;font-weight:normal;font-stretch:normal;font-size:17.5px;line-height:125%;font-family:sans-serif;-inkscape-font-specification:sans-serif;text-align:center;letter-spacing:0px;word-spacing:0px;writing-mode:lr-tb;text-anchor:middle;fill:#696e71;fill-opacity:1;stroke:none" x="353.60562" y="40.513187" id="text3825-sl" sodipodi:linespacing="125%" systemLanguage="sl"><svg:tspan sodipodi:role="line" id="tspan3827-sl" x="353.60562" y="40.513187" style="font-style:normal;font-variant:normal;font-weight:normal;font-stretch:normal;font-size:17.5px;font-family:sans-serif;-inkscape-font-specification:sans-serif;text-align:center;text-anchor:middle">SIRIJA IN LIBANON</svg:tspan><svg:tspan sodipodi:role="line" x="353.60562" y="62.388187" style="font-style:normal;font-variant:normal;font-weight:normal;font-stretch:normal;font-size:17.5px;font-family:sans-serif;-inkscape-font-specification:sans-serif;text-align:center;text-anchor:middle" id="tspan3381-sl">(Francoska mandata)</svg:tspan></svg:text><svg:text xml:space="preserve" style="font-style:normal;font-variant:normal;font-weight:normal;font-stretch:normal;font-size:17.5px;line-height:125%;font-family:sans-serif;-inkscape-font-specification:sans-serif;text-align:center;letter-spacing:0px;word-spacing:0px;writing-mode:lr-tb;text-anchor:middle;fill:#696e71;fill-opacity:1;stroke:none" x="353.60562" y="40.513187" id="text3825" sodipodi:linespacing="125%"><svg:tspan sodipodi:role="line" id="tspan3827" x="353.60562" y="40.513187" style="font-style:normal;font-variant:normal;font-weight:normal;font-stretch:normal;font-size:17.5px;font-family:sans-serif;-inkscape-font-specification:sans-serif;text-align:center;text-anchor:middle">SYRIA AND LEBANON</svg:tspan><svg:tspan sodipodi:role="line" x="353.60562" y="62.388187" style="font-style:normal;font-variant:normal;font-weight:normal;font-stretch:normal;font-size:17.5px;font-family:sans-serif;-inkscape-font-specification:sans-serif;text-align:center;text-anchor:middle" id="tspan3381">(French Mandates)</svg:tspan></svg:text></svg:switch>
  
  <path style="fill:none;fill-rule:evenodd;stroke:#000000;stroke-width:1;stroke-linecap:butt;stroke-linejoin:miter;stroke-opacity:1;stroke-miterlimit:4;stroke-dasharray:1,4;stroke-dashoffset:0" d="m 129.21026,471.90555 c 48.13715,-175.6584 48.13715,-175.6584 48.13715,-175.6584" id="path3375" inkscape:connector-curvature="0"/>
  <path style="fill:none;fill-rule:evenodd;stroke:#000000;stroke-width:1;stroke-linecap:butt;stroke-linejoin:miter;stroke-opacity:1;stroke-miterlimit:4;stroke-dasharray:1,4;stroke-dashoffset:0" d="m 194.23764,210.95149 c 5.06707,-108.94198 4.22256,-108.94198 4.22256,-108.94198 l 0.84451,2.53353" id="path3377" inkscape:connector-curvature="0"/>
</svg>
